# xmcd CD database file
#
# Track frame offsets:
#	187
#	56370
#	126925
#	173157
#	222605
#
# Disc length: 4346 seconds
#
# Revision: 4
# Processed by: cddbd v1.5.1PL2 Copyright (c) Steve Scherf et al.
# Submitted via: CDex 1.60beta1
#
DISCID=4710f805
DTITLE=Fela Kuti - Jazz Side of FELA
DYEAR=1998
DGENRE=
TTITLE0=J.J.D
TTITLE1=Roforofo Fight
TTITLE2=Sorrow, Tears and Blood
TTITLE3=Water No Get Enemy
TTITLE4=Just Like That
EXTD=YEAR: 1998
EXTT0=
EXTT1=
EXTT2=
EXTT3=
EXTT4=
PLAYORDER=
